<svg xmlns="http://www.w3.org/2000/svg" viewBox="0 0 64 64" aria-labelledby="title"
aria-describedby="desc" role="img" xmlns:xlink="http://www.w3.org/1999/xlink"
width="64" height="64">
  <title>Camera</title>
  <desc>A solid styled icon from Orion Icon Library.</desc>
  <path data-name="layer1"
  d="M59 18H46.6L40 10H24l-6.6 8H5a3 3 0 0 0-3 3v30a3 3 0 0 0 3 3h54a3 3 0 0 0 3-3V21a3 3 0 0 0-3-3zM32 48a14 14 0 1 1 14-14 14 14 0 0 1-14 14zm23.4-20.6a2 2 0 0 1-1.4.6 2.1 2.1 0 0 1-1.4-.6A2 2 0 0 1 52 26a2 2 0 0 1 .6-1.4 2.1 2.1 0 0 1 2.8 0A2 2 0 0 1 56 26a2 2 0 0 1-.6 1.4z"
  fill="#202020"></path>
</svg>