<svg xmlns="http://www.w3.org/2000/svg" viewBox="0 0 64 64" aria-labelledby="title"
aria-describedby="desc" role="img" xmlns:xlink="http://www.w3.org/1999/xlink"
width="64" height="64">
  <title>Camera</title>
  <desc>A flat styled icon from Orion Icon Library.</desc>
  <path data-name="layer5"
  d="M59 18H46.555L40 10H24l-6.552 8H5a3 3 0 0 0-3 3v30a3 3 0 0 0 3 3h54a3 3 0 0 0 3-3V21a3 3 0 0 0-3-3z"
  fill="#7b8baf"></path>
  <circle data-name="layer2" cx="54" cy="26.029" r="1" fill="#78d1f4"></circle>
  <path data-name="layer4" d="M54 24.029a2 2 0 0 0 0 4 2 2 0 0 0 0-4z"
  fill="#ffdea5"></path>
  <path data-name="opacity" d="M21.7 24.526L2 44.223V51a3 3 0 0 0 3 3h26.8l9.686-9.686z"
  fill="#000064" opacity=".15"></path>
  <path data-name="layer3" d="M32 20a14 14 0 1 0 14 14 14 14 0 0 0-14-14z"
  fill="#8fa9d8"></path>
  <circle data-name="layer2" cx="32" cy="34.001" r="6" fill="#78d1f4"></circle>
  <circle data-name="layer1" cx="33" cy="33" r="2" fill="#fff"></circle>
</svg>